# xmcd
#
# Track frame offsets: 
#        150
#        15512
#        32137
#        45397
#        58390
#        74670
#        86917
#        101220
#        116325
#        134322
#
# Disc length: 2027 seconds
#
# Revision: 18
# Processed by: cddbd v1.5.2PL0 Copyright (c) Steve Scherf et al.
# Submitted via: ExactAudioCopy v0.99pb1
#
DISCID=8d07e90a
DTITLE=Mark Collie - Mark Collie
DYEAR=1993
DGENRE=Country
TTITLE0=Trouble's Comin' Like A Train
TTITLE1=Even The Man In The Moon Is Cryin'
TTITLE2=Shame Shame Shame Shame
TTITLE3=Keep It Up
TTITLE4=Something's Gonna Change Her Mind
TTITLE5=The Heart Of The Matter
TTITLE6=Born To Love You
TTITLE7=Linda Lou
TTITLE8=Is That Too Much To Ask?
TTITLE9=Hillbilly Boy With The Rock 'N' Roll Blues
EXTD=
EXTT0=
EXTT1=
EXTT2=
EXTT3=
EXTT4=
EXTT5=
EXTT6=
EXTT7=
EXTT8=
EXTT9=
PLAYORDER=
